<?xml version="1.0" standalone="no"?>
<!DOCTYPE svg PUBLIC "-//W3C//DTD SVG 20010904//EN"
 "http://www.w3.org/TR/2001/REC-SVG-20010904/DTD/svg10.dtd">
<svg version="1.0" xmlns="http://www.w3.org/2000/svg"
 width="613.000000pt" height="613.000000pt" viewBox="0 0 613.000000 613.000000"
 preserveAspectRatio="xMidYMid meet">
<metadata>
Created by potrace 1.14, written by Peter Selinger 2001-2017
</metadata>
<g transform="translate(0.000000,613.000000) scale(0.100000,-0.100000)"
fill="#000000" stroke="none">
<path d="M470 6117 c-19 -7 -39 -13 -43 -14 -5 0 -42 -18 -84 -39 -71 -35
-196 -143 -230 -199 -40 -65 -85 -169 -97 -225 -21 -93 -21 -5043 -1 -5135 14
-66 73 -205 86 -205 5 0 9 -7 9 -16 0 -8 35 -50 78 -92 97 -96 194 -150 327
-180 17 -4 1166 -7 2555 -7 l2525 0 70 23 c180 61 319 181 395 344 64 138 59
-57 57 2723 l-2 2530 -23 65 c-47 128 -79 178 -178 276 -66 65 -190 134 -274
153 -72 17 -5125 14 -5170 -2z"/>
</g>
</svg>
